<svg width="819" height="193" viewBox="0 0 819 193" fill="none" xmlns="http://www.w3.org/2000/svg">
<mask id="mask0_1304_59" style="mask-type:alpha" maskUnits="userSpaceOnUse" x="0" y="0" width="170" height="193">
<path d="M49.4558 192.697C40.586 192.697 33.644 190.981 29.7558 187.646C24.361 183.009 17.2733 172.618 30.4444 155.063C32.5991 152.19 38.5852 144.364 45.3814 135.486C28.5327 132.298 12.243 126.495 4.64486 116.014C1.10502 111.134 -2.23231 102.919 1.93935 91.4596C17.6297 48.3394 73.9188 15.9749 78.6494 13.3204C83.1289 10.3583 113.837 -9.00049 130.394 5.3891C144.797 17.9011 137.474 35.7788 131.593 43.4835L120.05 58.7471C130.483 61.345 144.489 65.9986 154.639 73.7356C171.787 86.806 170.361 106.416 167.186 115.059C166.343 117.519 156.955 142.948 120.625 167.923C103.971 179.375 84.6679 187.574 66.2721 191.005C60.1807 192.146 54.5023 192.705 49.4477 192.705L49.4558 192.697ZM60.0592 137.663C51.5781 148.727 43.3806 159.45 40.829 162.841C32.9717 173.314 36.6492 176.47 38.2126 177.813C43.0485 181.973 78.3983 181.221 113.278 157.249C146.749 134.24 154.841 111.102 154.922 110.867L155.003 110.64C155.222 110.025 160.56 94.5431 146.789 84.0463C136.575 76.2607 120.763 72.0361 111.488 70.1018L95.5953 91.1197L98.5114 92.455C99.694 92.9325 106.012 95.5466 112.039 99.5689C125.202 108.358 126.206 116.767 124.724 122.27C121.152 135.583 105.453 139.169 96.6564 139.201C93.0518 139.306 77.5801 139.622 60.0592 137.663ZM69.3988 125.483C79.1354 126.276 88.5966 126.479 96.3486 126.244H96.5511C100.091 126.22 110.605 124.819 112.193 118.92C113.157 115.334 102.805 108.075 93.5945 104.449L93.2705 104.311L87.584 101.714L82.7725 108.075C82.6266 108.261 76.7539 115.909 69.415 125.483H69.3988ZM114.947 13.0452C105.696 13.0452 92.266 19.8273 85.6481 24.238L85.1945 24.5132C84.6274 24.8288 28.5084 56.4001 14.1384 95.8865C11.7245 102.515 13.5633 106.205 15.1591 108.407C20.886 116.314 36.8517 121.137 54.3727 123.759C63.4208 111.959 71.6669 101.228 72.4607 100.192L75.4903 96.186L68.2729 92.8921C64.6034 91.2168 61.4119 88.9588 58.7631 86.1748C51.4485 78.4701 50.7276 69.2682 56.8271 61.5554C67.5114 48.0399 98.7625 54.2716 105.939 55.9226L121.273 35.6412C122.253 34.3382 130.564 22.6922 121.897 15.1575C120.172 13.6603 117.75 13.0371 114.947 13.0371V13.0452ZM81.8328 66.0552C74.7126 66.0552 68.9533 67.1316 67.0092 69.5919C65.8347 71.073 64.2308 73.1124 68.1757 77.2642C69.6742 78.8424 71.513 80.1292 73.6596 81.1085L83.5015 85.6001L97.2477 67.4149C91.9987 66.5408 86.612 66.0471 81.8328 66.0471V66.0552Z" fill="black"/>
</mask>
<g mask="url(#mask0_1304_59)">
<rect x="-1.73535" y="0.126148" width="174.362" height="192.579" fill="url(#paint0_linear_1304_59)"/>
</g>
<path d="M234.071 138.383C230.018 136.648 226.803 134.153 224.445 130.891C222.086 127.629 220.871 123.783 220.807 119.345H236.414C236.622 122.328 237.677 124.686 239.588 126.422C241.491 128.157 244.114 129.02 247.44 129.02C250.766 129.02 253.509 128.205 255.452 126.573C257.395 124.942 258.362 122.815 258.362 120.177C258.362 118.026 257.706 116.259 256.387 114.868C255.068 113.485 253.421 112.389 251.446 111.59C249.471 110.79 246.744 109.911 243.282 108.935C238.565 107.552 234.735 106.177 231.785 104.825C228.834 103.474 226.308 101.427 224.189 98.6847C222.07 95.9422 221.015 92.2882 221.015 87.7067C221.015 83.405 222.086 79.663 224.237 76.4728C226.388 73.2825 229.402 70.8359 233.288 69.1408C237.174 67.4457 241.611 66.5902 246.601 66.5902C254.092 66.5902 260.177 68.4132 264.855 72.0512C269.54 75.6892 272.123 80.7744 272.602 87.2909H256.579C256.443 84.7962 255.38 82.7334 253.405 81.1023C251.43 79.4712 248.807 78.6556 245.553 78.6556C242.707 78.6556 240.436 79.3832 238.741 80.8384C237.038 82.2936 236.19 84.4125 236.19 87.1869C236.19 89.1299 236.83 90.745 238.117 92.0243C239.396 93.3116 240.996 94.351 242.899 95.1426C244.802 95.9422 247.496 96.8617 250.958 97.9011C255.676 99.2923 259.521 100.676 262.504 102.059C265.486 103.45 268.053 105.529 270.204 108.303C272.354 111.078 273.426 114.716 273.426 119.225C273.426 123.111 272.418 126.717 270.412 130.044C268.397 133.37 265.454 136.024 261.568 137.999C257.682 139.974 253.069 140.966 247.728 140.966C242.667 140.966 238.109 140.102 234.047 138.367L234.071 138.383Z" fill="white"/>
<path d="M281.822 73.3065C280.119 71.6754 279.271 69.6525 279.271 67.2218C279.271 64.7912 280.119 62.7683 281.822 61.1372C283.517 59.506 285.652 58.6905 288.219 58.6905C290.785 58.6905 292.92 59.506 294.615 61.1372C296.31 62.7683 297.166 64.7991 297.166 67.2218C297.166 69.6445 296.318 71.6754 294.615 73.3065C292.912 74.9376 290.785 75.7532 288.219 75.7532C285.652 75.7532 283.517 74.9376 281.822 73.3065ZM295.399 82.6214V140.254H280.831V82.6214H295.399Z" fill="white"/>
<path d="M321.511 94.5828V122.464C321.511 124.407 321.983 125.814 322.918 126.677C323.853 127.549 325.429 127.981 327.651 127.981H334.416V140.254H325.261C312.987 140.254 306.847 134.289 306.847 122.36V94.5828H299.979V82.6214H306.847V68.3651H321.519V82.6214H334.416V94.5828H321.519H321.511Z" fill="white"/>
<path d="M392.872 115.811H350.735C351.079 119.969 352.534 123.231 355.101 125.59C357.667 127.949 360.825 129.124 364.567 129.124C369.98 129.124 373.826 126.805 376.113 122.152H391.824C390.161 127.701 386.971 132.258 382.254 135.832C377.536 139.406 371.747 141.189 364.879 141.189C359.33 141.189 354.357 139.958 349.951 137.495C345.546 135.033 342.116 131.547 339.653 127.037C337.19 122.528 335.959 117.33 335.959 111.43C335.959 105.529 337.174 100.228 339.597 95.7182C342.028 91.2087 345.426 87.7466 349.791 85.3159C354.157 82.8853 359.186 81.6779 364.879 81.6779C370.572 81.6779 375.266 82.8613 379.599 85.212C383.933 87.5707 387.299 90.9209 389.69 95.2545C392.08 99.5881 393.28 104.561 393.28 110.182C393.28 112.261 393.144 114.132 392.864 115.803L392.872 115.811ZM378.2 106.033C378.128 102.291 376.777 99.2843 374.146 97.0375C371.508 94.7828 368.285 93.6554 364.471 93.6554C360.865 93.6554 357.827 94.7508 355.372 96.9336C352.91 99.1164 351.399 102.155 350.847 106.033H378.208H378.2Z" fill="white"/>
<path d="M408.064 138.647C404.322 136.952 401.356 134.641 399.173 131.731C396.99 128.82 395.791 125.59 395.583 122.056H410.255C410.535 124.279 411.622 126.11 413.533 127.573C415.436 129.028 417.819 129.756 420.657 129.756C423.496 129.756 425.599 129.204 427.158 128.093C428.717 126.981 429.501 125.558 429.501 123.831C429.501 121.96 428.549 120.553 426.638 119.617C424.727 118.682 421.697 117.658 417.539 116.547C413.237 115.507 409.719 114.436 406.977 113.325C404.234 112.213 401.876 110.518 399.901 108.223C397.926 105.929 396.934 102.85 396.934 98.9645C396.934 95.7742 397.854 92.8638 399.693 90.2253C401.532 87.5947 404.162 85.5078 407.6 83.9807C411.031 82.4535 415.076 81.6939 419.722 81.6939C426.59 81.6939 432.067 83.413 436.161 86.8431C440.255 90.2732 442.509 94.9027 442.925 100.732H428.981C428.773 98.4448 427.821 96.6218 426.118 95.2705C424.415 93.9192 422.145 93.2396 419.306 93.2396C416.668 93.2396 414.637 93.7274 413.221 94.6948C411.798 95.6703 411.087 97.0216 411.087 98.7486C411.087 100.692 412.054 102.163 413.997 103.17C415.94 104.178 418.954 105.201 423.048 106.241C427.206 107.28 430.644 108.359 433.346 109.463C436.049 110.574 438.392 112.293 440.367 114.612C442.341 116.939 443.365 120.009 443.437 123.815C443.437 127.141 442.517 130.123 440.678 132.762C438.839 135.401 436.209 137.463 432.771 138.951C429.333 140.438 425.335 141.189 420.753 141.189C416.172 141.189 411.806 140.342 408.064 138.639V138.647Z" fill="white"/>
<mask id="mask1_1304_59" style="mask-type:alpha" maskUnits="userSpaceOnUse" x="453" y="68" width="96" height="74">
<path d="M480.945 82.31C486.006 82.31 490.276 83.389 493.946 85.5317C497.624 87.6825 500.359 90.3857 502.166 93.6479V83.2456H511.737V140.254H502.166V129.644C500.295 132.97 497.497 135.729 493.795 137.912C490.085 140.094 485.767 141.19 480.842 141.19C475.917 141.19 471.199 139.942 467.105 137.448C463.012 134.953 459.789 131.45 457.431 126.941C455.072 122.431 453.896 117.298 453.896 111.541C453.897 105.785 455.072 100.603 457.431 96.1977C459.789 91.7923 463.028 88.3783 467.161 85.9477C471.287 83.5251 475.884 82.3101 480.945 82.31ZM534.108 83.2534H548.988V91.0571H534.108L534.101 91.0493V124.655C534.101 127.429 534.693 129.388 535.868 130.532C537.044 131.675 539.091 132.25 542.009 132.25H548.98V140.262H540.449C535.18 140.262 531.222 139.047 528.592 136.624C525.953 134.194 524.642 130.212 524.642 124.663V91.0571H517.254V83.2534H524.642V68.893H534.108V83.2534ZM482.824 90.5288C479.29 90.5288 476.061 91.361 473.15 93.0239C470.24 94.687 467.913 97.1178 466.178 100.308C464.443 103.498 463.579 107.24 463.579 111.541C463.579 115.843 464.443 119.706 466.178 122.936C467.913 126.158 470.232 128.621 473.15 130.324C476.061 132.027 479.291 132.874 482.824 132.874C486.358 132.874 489.605 132.027 492.547 130.324C495.497 128.629 497.832 126.166 499.567 122.936C501.302 119.714 502.166 115.948 502.166 111.646C502.166 107.344 501.294 103.602 499.567 100.412C497.832 97.2215 495.489 94.7746 492.547 93.0796C489.597 91.3847 486.358 90.5288 482.824 90.5288Z" fill="white"/>
</mask>
<g mask="url(#mask1_1304_59)">
<rect x="448" y="57" width="106" height="96" fill="url(#paint1_linear_1304_59)"/>
</g>
<path d="M572.183 138.383C568.129 136.648 564.915 134.153 562.556 130.891C560.197 127.629 558.982 123.783 558.918 119.345H574.525C574.733 122.328 575.789 124.686 577.7 126.422C579.603 128.157 582.225 129.02 585.551 129.02C588.878 129.02 591.62 128.205 593.563 126.573C595.506 124.942 596.473 122.815 596.473 120.177C596.473 118.026 595.818 116.259 594.499 114.868C593.179 113.485 591.532 112.389 589.557 111.59C587.582 110.79 584.856 109.911 581.394 108.935C576.676 107.552 572.846 106.177 569.896 104.825C566.946 103.474 564.419 101.427 562.3 98.6847C560.181 95.9422 559.126 92.2882 559.126 87.7067C559.126 83.405 560.197 79.6631 562.348 76.4728C564.499 73.2825 567.513 70.8359 571.399 69.1408C575.285 67.4457 579.723 66.5902 584.712 66.5902C592.204 66.5902 598.288 68.4132 602.974 72.0512C607.659 75.6892 610.234 80.7745 610.722 87.2909H594.698C594.563 84.7963 593.499 82.7334 591.524 81.1023C589.549 79.4712 586.927 78.6556 583.672 78.6556C580.826 78.6556 578.555 79.3832 576.86 80.8384C575.157 82.2936 574.31 84.4125 574.31 87.187C574.31 89.1299 574.949 90.745 576.236 92.0243C577.516 93.3116 579.115 94.351 581.018 95.1426C582.921 95.9422 585.615 96.8617 589.077 97.9011C593.795 99.2923 597.641 100.676 600.623 102.059C603.606 103.45 606.172 105.529 608.323 108.303C610.474 111.078 611.545 114.716 611.545 119.225C611.545 123.111 610.538 126.717 608.531 130.044C606.516 133.37 603.574 136.024 599.688 137.999C595.802 139.974 591.188 140.966 585.847 140.966C580.786 140.966 576.229 140.102 572.167 138.367L572.183 138.383Z" fill="white"/>
<path d="M618.845 95.7822C621.276 91.3127 624.634 87.8426 628.936 85.3799C633.237 82.9173 638.162 81.6859 643.711 81.6859C650.852 81.6859 656.768 83.469 661.446 87.043C666.131 90.617 669.265 95.6223 670.865 102.075H655.153C654.322 99.5802 652.914 97.6212 650.94 96.198C648.965 94.7748 646.518 94.0632 643.607 94.0632C639.45 94.0632 636.156 95.5743 633.725 98.5887C631.294 101.603 630.087 105.889 630.087 111.438C630.087 116.987 631.294 121.16 633.725 124.183C636.156 127.197 639.45 128.708 643.607 128.708C649.5 128.708 653.354 126.07 655.153 120.801H670.865C669.265 127.045 666.115 132.002 661.398 135.68C656.68 139.358 650.788 141.197 643.711 141.197C638.162 141.197 633.237 139.966 628.936 137.503C624.634 135.041 621.276 131.571 618.845 127.101C616.414 122.632 615.207 117.41 615.207 111.446C615.207 105.481 616.422 100.26 618.845 95.7902V95.7822Z" fill="white"/>
<path d="M676.111 95.7263C678.43 91.2167 681.588 87.7546 685.578 85.3239C689.568 82.8933 694.021 81.6859 698.947 81.6859C703.248 81.6859 707.014 82.5575 710.236 84.2845C713.459 86.0196 716.041 88.2024 717.984 90.8409V82.6214H732.656V140.254H717.984V131.827C716.113 134.529 713.523 136.768 710.236 138.535C706.942 140.302 703.144 141.189 698.843 141.189C693.989 141.189 689.568 139.942 685.578 137.447C681.588 134.953 678.43 131.435 676.111 126.885C673.784 122.344 672.625 117.123 672.625 111.23C672.625 105.337 673.784 100.236 676.111 95.7263ZM715.905 102.331C714.514 99.796 712.643 97.8611 710.284 96.5018C707.926 95.1506 705.399 94.4709 702.689 94.4709C699.978 94.4709 697.483 95.1346 695.197 96.4459C692.91 97.7651 691.055 99.6921 689.632 102.219C688.208 104.753 687.497 107.752 687.497 111.214C687.497 114.676 688.208 117.714 689.632 120.313C691.055 122.911 692.926 124.91 695.253 126.294C697.571 127.685 700.058 128.372 702.689 128.372C705.319 128.372 707.926 127.693 710.284 126.342C712.643 124.99 714.514 123.047 715.905 120.513C717.297 117.978 717.984 114.948 717.984 111.414C717.984 107.88 717.289 104.841 715.905 102.315V102.331Z" fill="white"/>
<path d="M756.267 63.272V140.254H741.699V63.272H756.267Z" fill="white"/>
<path d="M818.585 115.811H776.448C776.791 119.969 778.247 123.231 780.821 125.59C783.388 127.949 786.538 129.124 790.288 129.124C795.701 129.124 799.547 126.805 801.834 122.152H817.545C815.882 127.701 812.692 132.258 807.974 135.832C803.257 139.406 797.468 141.189 790.6 141.189C785.051 141.189 780.078 139.958 775.672 137.495C771.266 135.033 767.836 131.547 765.374 127.037C762.911 122.528 761.68 117.33 761.68 111.43C761.68 105.529 762.895 100.228 765.318 95.7183C767.748 91.2087 771.147 87.7466 775.512 85.3159C779.878 82.8853 784.907 81.6779 790.6 81.6779C796.293 81.6779 800.986 82.8613 805.32 85.212C809.653 87.5707 813.02 90.9209 815.41 95.2545C817.801 99.5881 819 104.561 819 110.182C819 112.261 818.864 114.132 818.585 115.803V115.811ZM803.913 106.033C803.841 102.291 802.489 99.2843 799.859 97.0375C797.22 94.7828 793.998 93.6554 790.184 93.6554C786.578 93.6554 783.54 94.7508 781.085 96.9336C778.622 99.1164 777.111 102.155 776.56 106.033H803.921H803.913Z" fill="white"/>
<defs>
<linearGradient id="paint0_linear_1304_59" x1="93.6865" y1="-68.4041" x2="45.0131" y2="208.073" gradientUnits="userSpaceOnUse">
<stop offset="0.182692" stop-color="#06EFFF"/>
<stop offset="0.346154" stop-color="#01B0FF"/>
<stop offset="0.601088" stop-color="#6100FF"/>
<stop offset="0.985577" stop-color="#FF00A8"/>
</linearGradient>
<linearGradient id="paint1_linear_1304_59" x1="461.5" y1="63" x2="543" y2="153" gradientUnits="userSpaceOnUse">
<stop stop-color="#53FDFC"/>
<stop offset="1" stop-color="#03B3FE"/>
</linearGradient>
</defs>
</svg>
