<svg width="4060" height="696" viewBox="0 0 4060 696" fill="none" xmlns="http://www.w3.org/2000/svg">
<path d="M680.481 523.781C726.518 523.781 770.665 541.921 803.21 574.201C835.033 605.766 853.212 648.323 854.002 692.866H506.961C507.751 648.323 525.93 605.766 557.753 574.201C590.298 541.921 634.445 523.781 680.481 523.781ZM747.648 3.03027C841.5 3.03057 889.118 115.943 823.608 183.149L326.76 692.866H10.8896L466.575 232.17L471.68 227.009H232.385L7.33984 3.03027H747.648Z" fill="url(#paint0_linear_516_119)" stroke="url(#paint1_linear_516_119)" stroke-width="6.05983"/>
<path d="M1411.96 183.447C1457.63 183.447 1480.8 238.427 1448.92 271.151L1213.45 512.882H1059.98L1277.97 292.347H1167.61L1058.27 183.447H1411.96Z" fill="white"/>
<path d="M1380.19 429.969C1402.34 429.969 1423.59 438.704 1439.26 454.254C1454.92 469.803 1463.72 490.892 1463.72 512.882H1296.65C1296.65 490.892 1305.45 469.803 1321.12 454.254C1336.78 438.704 1358.03 429.969 1380.19 429.969Z" fill="white"/>
<path d="M1214.17 421.984H1427.64L1518.81 512.882H1194.89L1214.17 421.984Z" fill="white"/>
<path d="M3652.12 512.883V420.343L3492.53 183.506H3616.44L3698 309.375H3708.19L3789.75 183.506H3913.66L3755.64 417.991V512.883H3652.12Z" fill="white"/>
<path d="M4008.08 181.256V188.944H3995.09V224.675H3985.96V188.944H3972.91V181.256H4008.08ZM4021.72 224.675H4013.27V181.256H4026.47L4034.36 215.396L4042.2 181.256H4055.24V224.675H4046.79V195.307C4046.79 194.462 4046.8 193.284 4046.82 191.772C4046.84 190.24 4046.85 189.062 4046.85 188.237L4038.63 224.675H4029.82L4021.66 188.237C4021.66 189.062 4021.67 190.24 4021.69 191.772C4021.71 193.284 4021.72 194.462 4021.72 195.307V224.675Z" fill="white"/>
<path d="M3148.36 512.883L3281.28 183.506H3449.5L3582.43 512.883H3471.85L3444.4 441.518H3285.99L3258.54 512.883H3148.36ZM3315.4 365.447H3414.99L3376.96 267.419H3353.43L3315.4 365.447Z" fill="white"/>
<path d="M2939.74 512.883V183.506H3043.26V428.186H3164.06L3128.52 512.883H2939.74Z" fill="white"/>
<path d="M2584.46 512.883V183.506H2807.18C2879.33 183.506 2924.03 226.246 2924.03 296.435C2924.03 368.584 2876.98 417.991 2807.18 417.991H2687.98V512.883H2584.46ZM2687.98 337.999H2776.6C2804.83 337.999 2820.51 325.059 2820.51 303.101C2820.51 280.75 2804.05 268.203 2776.6 268.203H2687.98V337.999Z" fill="white"/>
<path d="M2254.84 512.883V183.506H2565.79L2504.91 265.85H2358.36V308.199H2506.01V381.132H2358.36V430.538H2504.91L2565.79 512.883H2254.84Z" fill="white"/>
<path d="M1877.12 512.883V183.506H2006.91L2133.95 385.445V183.506H2232.77V512.883H2102.98L1975.93 309.375V512.883H1877.12Z" fill="white"/>
<path d="M1464.51 348.194C1464.51 245.067 1533.91 178.8 1662.92 178.8C1791.53 178.8 1861.33 245.067 1861.33 348.194C1861.33 451.32 1791.53 517.587 1662.92 517.587C1533.91 517.587 1464.51 451.32 1464.51 348.194ZM1568.42 348.194C1568.42 399.169 1597.04 430.538 1662.92 430.538C1728.4 430.538 1757.03 399.169 1757.03 348.194C1757.03 297.219 1728.4 265.849 1662.92 265.849C1597.04 265.849 1568.42 297.219 1568.42 348.194Z" fill="white"/>
<defs>
<linearGradient id="paint0_linear_516_119" x1="428.531" y1="0" x2="428.531" y2="695.896" gradientUnits="userSpaceOnUse">
<stop stop-color="#5E14FF"/>
<stop offset="1" stop-color="#8B56FF"/>
</linearGradient>
<linearGradient id="paint1_linear_516_119" x1="346.512" y1="-1.52426e-05" x2="691.096" y2="477.625" gradientUnits="userSpaceOnUse">
<stop stop-color="#A87FFF"/>
<stop offset="1" stop-color="#8955FE" stop-opacity="0"/>
</linearGradient>
</defs>
</svg>
